<svg width="19" height="16" viewBox="0 0 19 16" fill="none" xmlns="http://www.w3.org/2000/svg">
<path d="M13.8743 5.98453L10.1967 0.608108C10.0372 0.378626 9.76847 0.263885 9.49978 0.263885C9.2311 0.263885 8.96241 0.378626 8.80288 0.616303L5.12523 5.98453H1.10332C0.641513 5.98453 0.263672 6.35334 0.263672 6.8041C0.263672 6.87787 0.272068 6.95163 0.297258 7.02539L2.42996 14.6229C2.62308 15.3113 3.26961 15.8194 4.04208 15.8194H14.9575C15.73 15.8194 16.3765 15.3113 16.578 14.6229L18.7107 7.02539L18.7359 6.8041C18.7359 6.35334 18.3581 5.98453 17.8963 5.98453H13.8743ZM6.98084 5.98453L9.49978 2.37839L12.0187 5.98453H6.98084ZM9.49978 12.5411C8.57617 12.5411 7.82049 11.8035 7.82049 10.902C7.82049 10.0005 8.57617 9.26283 9.49978 9.26283C10.4234 9.26283 11.1791 10.0005 11.1791 10.902C11.1791 11.8035 10.4234 12.5411 9.49978 12.5411Z" fill="#F7F7F7"/>
</svg>
