<svg width="41" height="27" viewBox="0 0 41 27" fill="none" xmlns="http://www.w3.org/2000/svg">
    <path d="M31.775 8.30769C31.7135 8.30769 31.6725 8.32846 31.611 8.32846L23.3905 0H14.35V4.15385H21.7095L25.8095 8.30769H9.2045C4.1205 8.30769 0 12.5031 0 17.6538C0 22.8254 4.1205 27 9.225 27C13.776 27 17.548 23.6354 18.286 19.2531L22.632 16.6154C22.591 16.9685 22.55 17.3008 22.55 17.6538C22.55 22.8254 26.6705 27 31.775 27C36.8795 27 41 22.8254 41 17.6538C41 12.4823 36.8795 8.30769 31.775 8.30769ZM14.022 19.2323C13.366 21.33 11.439 22.8462 9.1635 22.8462C6.3345 22.8462 4.0385 20.52 4.0385 17.6538C4.0385 14.7877 6.3345 12.4615 9.1635 12.4615C11.4595 12.4615 13.366 13.9985 14.022 16.0962H8.2V19.2115L14.022 19.2323ZM31.7135 22.8462C28.8845 22.8462 26.5885 20.52 26.5885 17.6538C26.5885 14.7877 28.8845 12.4615 31.7135 12.4615C34.5425 12.4615 36.8385 14.7877 36.8385 17.6538C36.8385 20.52 34.5425 22.8462 31.7135 22.8462Z" fill="white" />
</svg>