<svg width="26" height="22" viewBox="0 0 26 22" fill="none" xmlns="http://www.w3.org/2000/svg">
<path d="M19.1573 8.09062L13.9809 0.486828C13.7564 0.162276 13.3782 0 13 0C12.6218 0 12.2436 0.162276 12.0191 0.498419L6.84273 8.09062H1.18182C0.531818 8.09062 0 8.61222 0 9.24974C0 9.35406 0.0118181 9.45838 0.0472727 9.5627L3.04909 20.3077C3.32091 21.2813 4.23091 22 5.31818 22H20.6818C21.7691 22 22.6791 21.2813 22.9627 20.3077L25.9645 9.5627L26 9.24974C26 8.61222 25.4682 8.09062 24.8182 8.09062H19.1573ZM9.45455 8.09062L13 2.99052L16.5455 8.09062H9.45455ZM13 17.3635C11.7 17.3635 10.6364 16.3203 10.6364 15.0453C10.6364 13.7703 11.7 12.7271 13 12.7271C14.3 12.7271 15.3636 13.7703 15.3636 15.0453C15.3636 16.3203 14.3 17.3635 13 17.3635Z" fill="white"/>
</svg>
