<svg width="1440" height="9" viewBox="0 0 1440 9" fill="none" xmlns="http://www.w3.org/2000/svg">
    <g clip-path="url(#clip0_631_267)">
        <path fill-rule="evenodd" clip-rule="evenodd" d="M1 110.454C1 103.274 -4.23054 97.3169 -10.7165 94.2354C-27.4388 86.2905 -39 69.2454 -39 49.5C-39 22.1619 -16.8381 0 10.5 0C18.888 0 26.7888 2.08637 33.7116 5.76847C41.1734 9.73729 50.8266 9.73729 58.2884 5.76847C65.2112 2.08637 73.112 0 81.5 0C89.888 0 97.7888 2.08637 104.712 5.76847C112.173 9.73729 121.827 9.73729 129.288 5.76847C136.211 2.08637 144.112 0 152.5 0C160.888 0 168.789 2.08637 175.712 5.76847C183.173 9.73729 192.827 9.73729 200.288 5.76847C207.211 2.08637 215.112 0 223.5 0C231.888 0 239.789 2.08636 246.712 5.76846C254.173 9.73728 263.827 9.73727 271.288 5.76846C278.211 2.08636 286.112 0 294.5 0C302.888 0 310.789 2.08636 317.712 5.76846C325.173 9.73728 334.827 9.73727 342.288 5.76846C349.211 2.08636 357.112 0 365.5 0C373.888 0 381.789 2.08636 388.712 5.76846C396.173 9.73728 405.827 9.73727 413.288 5.76846C420.211 2.08636 428.112 0 436.5 0C444.888 0 452.789 2.08637 459.712 5.76847C467.173 9.73729 476.827 9.7373 484.288 5.76848C491.211 2.08637 499.112 0 507.5 0C515.888 0 523.789 2.08638 530.712 5.76849C538.173 9.73731 547.827 9.73731 555.288 5.76849C562.211 2.08638 570.112 0 578.5 0C586.888 0 594.789 2.08638 601.712 5.76849C609.173 9.73731 618.827 9.73731 626.288 5.76849C633.211 2.08638 641.112 0 649.5 0C657.888 0 665.789 2.08638 672.712 5.76849C680.173 9.73731 689.827 9.73731 697.288 5.76849C704.211 2.08638 712.112 0 720.5 0C728.888 0 736.789 2.08638 743.712 5.76849C751.173 9.73731 760.827 9.73731 768.288 5.76849C775.211 2.08638 783.112 0 791.5 0C799.888 0 807.789 2.08638 814.712 5.76849C822.173 9.73731 831.827 9.73731 839.288 5.76849C846.211 2.08638 854.112 0 862.5 0C870.888 0 878.789 2.08638 885.712 5.76849C893.173 9.73731 902.827 9.73731 910.288 5.76849C917.211 2.08638 925.112 0 933.5 0C941.888 0 949.789 2.08638 956.712 5.76849C964.173 9.73731 973.827 9.73731 981.288 5.76848C988.211 2.08637 996.112 0 1004.5 0C1012.89 0 1020.79 2.08637 1027.71 5.76848C1035.17 9.7373 1044.83 9.7373 1052.29 5.76848C1059.21 2.08637 1067.11 0 1075.5 0C1083.89 0 1091.79 2.08637 1098.71 5.76848C1106.17 9.7373 1115.83 9.7373 1123.29 5.76848C1130.21 2.08637 1138.11 0 1146.5 0C1154.89 0 1162.79 2.08637 1169.71 5.76848C1177.17 9.7373 1186.83 9.7373 1194.29 5.76848C1201.21 2.08637 1209.11 0 1217.5 0C1225.89 0 1233.79 2.08637 1240.71 5.76848C1248.17 9.7373 1257.83 9.7373 1265.29 5.76848C1272.21 2.08637 1280.11 0 1288.5 0C1296.89 0 1304.79 2.08637 1311.71 5.76848C1319.17 9.7373 1328.83 9.7373 1336.29 5.76848C1343.21 2.08637 1351.11 0 1359.5 0C1367.89 0 1375.79 2.08637 1382.71 5.76848C1390.17 9.7373 1399.83 9.7373 1407.29 5.76848C1414.21 2.08637 1422.11 0 1430.5 0C1457.84 0 1480 22.1619 1480 49.5C1480 68.9744 1468.75 85.8221 1452.4 93.9032C1446.07 97.0328 1441 102.926 1441 109.99V409.01C1441 416.074 1446.07 421.967 1452.4 425.097C1468.75 433.178 1480 450.026 1480 469.5C1480 496.838 1457.84 519 1430.5 519C1422.11 519 1414.21 516.914 1407.29 513.232C1399.83 509.263 1390.17 509.263 1382.71 513.232C1375.79 516.914 1367.89 519 1359.5 519C1351.11 519 1343.21 516.914 1336.29 513.232C1328.83 509.263 1319.17 509.263 1311.71 513.232C1304.79 516.914 1296.89 519 1288.5 519C1280.11 519 1272.21 516.914 1265.29 513.232C1257.83 509.263 1248.17 509.263 1240.71 513.232C1233.79 516.914 1225.89 519 1217.5 519C1209.11 519 1201.21 516.914 1194.29 513.232C1186.83 509.263 1177.17 509.263 1169.71 513.232C1162.79 516.914 1154.89 519 1146.5 519C1138.11 519 1130.21 516.914 1123.29 513.232C1115.83 509.263 1106.17 509.263 1098.71 513.232C1091.79 516.914 1083.89 519 1075.5 519C1067.11 519 1059.21 516.914 1052.29 513.232C1044.83 509.263 1035.17 509.263 1027.71 513.232C1020.79 516.914 1012.89 519 1004.5 519C996.112 519 988.211 516.914 981.288 513.232C973.827 509.263 964.173 509.263 956.712 513.232C949.789 516.914 941.888 519 933.5 519C925.112 519 917.211 516.914 910.288 513.232C902.827 509.263 893.173 509.263 885.712 513.232C878.789 516.914 870.888 519 862.5 519C854.112 519 846.211 516.914 839.288 513.232C831.827 509.263 822.173 509.263 814.712 513.232C807.789 516.914 799.888 519 791.5 519C783.112 519 775.211 516.914 768.288 513.232C760.827 509.263 751.173 509.263 743.712 513.232C736.789 516.914 728.888 519 720.5 519C712.112 519 704.211 516.914 697.288 513.232C689.827 509.263 680.173 509.263 672.712 513.232C665.789 516.914 657.888 519 649.5 519C641.112 519 633.211 516.914 626.288 513.232C618.827 509.263 609.173 509.263 601.712 513.232C594.789 516.914 586.888 519 578.5 519C570.112 519 562.211 516.914 555.288 513.232C547.827 509.263 538.173 509.263 530.712 513.232C523.789 516.914 515.888 519 507.5 519C499.112 519 491.211 516.914 484.288 513.232C476.827 509.263 467.173 509.263 459.712 513.232C452.789 516.914 444.888 519 436.5 519C428.112 519 420.211 516.914 413.288 513.232C405.827 509.263 396.173 509.263 388.712 513.232C381.789 516.914 373.888 519 365.5 519C357.112 519 349.211 516.914 342.288 513.232C334.827 509.263 325.173 509.263 317.712 513.232C310.789 516.914 302.888 519 294.5 519C286.112 519 278.211 516.914 271.288 513.232C263.827 509.263 254.173 509.263 246.712 513.232C239.789 516.914 231.888 519 223.5 519C215.112 519 207.211 516.914 200.288 513.232C192.827 509.263 183.173 509.263 175.712 513.232C168.789 516.914 160.888 519 152.5 519C144.112 519 136.211 516.914 129.288 513.232C121.827 509.263 112.173 509.263 104.712 513.232C97.7888 516.914 89.888 519 81.5 519C73.112 519 65.2112 516.914 58.2884 513.232C50.8265 509.263 41.1735 509.263 33.7116 513.232C26.7888 516.914 18.888 519 10.5 519C-16.8381 519 -39 496.838 -39 469.5C-39 449.755 -27.4388 432.71 -10.7165 424.765C-4.23054 421.683 1 415.726 1 408.546V110.454Z" fill="#5BBEDD" />
    </g>
    <defs>
        <clipPath id="clip0_631_267">
            <rect width="1440" height="9" fill="white" />
        </clipPath>
    </defs>
</svg>