<svg width="37" height="37" viewBox="0 0 37 37" fill="none" xmlns="http://www.w3.org/2000/svg">
<path d="M34.9444 25.6944C32.375 25.6944 29.9083 25.2833 27.6061 24.5228C26.8867 24.2967 26.085 24.4611 25.5094 25.0161L20.9872 29.5383C15.17 26.5783 10.4011 21.83 7.44111 16.0128L11.9633 11.47C12.5389 10.915 12.7033 10.1133 12.4772 9.39389C11.7167 7.09167 11.3056 4.625 11.3056 2.05556C11.3056 0.925 10.3806 0 9.25 0H2.05556C0.925 0 0 0.925 0 2.05556C0 21.3572 15.6428 37 34.9444 37C36.075 37 37 36.075 37 34.9444V27.75C37 26.6194 36.075 25.6944 34.9444 25.6944ZM18.5 0V20.5556L24.6667 14.3889H37V0H18.5Z" fill="white"/>
</svg>
