<svg width="1440" height="10" viewBox="0 0 1440 10" fill="none" xmlns="http://www.w3.org/2000/svg">
    <g clip-path="url(#clip0_632_314)">
        <path fill-rule="evenodd" clip-rule="evenodd" d="M-15.6751 105C-6.8538 105 1.44774 102.724 8.6987 98.7138C16.2117 94.5591 26.0556 94.5591 33.5686 98.7138C40.8195 102.724 49.1211 105 57.9424 105C66.7637 105 75.0652 102.724 82.3162 98.7138C89.8292 94.5591 99.6731 94.5591 107.186 98.7138C114.437 102.724 122.739 105 131.56 105C140.381 105 148.683 102.724 155.934 98.7138C163.447 94.5591 173.291 94.5591 180.804 98.7138C188.055 102.724 196.356 105 205.177 105C213.999 105 222.3 102.724 229.551 98.7138C237.064 94.5591 246.908 94.5591 254.421 98.7138C261.672 102.724 269.974 105 278.795 105C287.616 105 295.918 102.724 303.169 98.7138C310.682 94.5591 320.526 94.5591 328.039 98.7138C335.29 102.724 343.591 105 352.412 105C361.234 105 369.535 102.724 376.786 98.7138C384.299 94.5591 394.143 94.5591 401.656 98.7138C408.907 102.724 417.209 105 426.03 105C434.851 105 443.153 102.724 450.404 98.7138C457.917 94.5591 467.761 94.5591 475.274 98.7138C482.525 102.724 490.826 105 499.647 105C508.469 105 516.77 102.724 524.021 98.7138C531.534 94.5591 541.378 94.5591 548.891 98.7138C556.142 102.724 564.444 105 573.265 105C582.086 105 590.388 102.724 597.639 98.7138C605.152 94.5591 614.996 94.5591 622.509 98.7138C629.76 102.724 638.061 105 646.883 105C655.704 105 664.005 102.724 671.256 98.7138C678.769 94.5591 688.613 94.5591 696.126 98.7138C703.377 102.724 711.679 105 720.5 105C729.321 105 737.623 102.724 744.874 98.7138C752.387 94.5591 762.231 94.5591 769.744 98.7138C776.995 102.724 785.296 105 794.117 105C802.939 105 811.24 102.724 818.491 98.7138C826.004 94.5591 835.848 94.5591 843.361 98.7138C850.612 102.724 858.914 105 867.735 105C876.556 105 884.858 102.724 892.109 98.7138C899.622 94.5591 909.466 94.5591 916.979 98.7138C924.23 102.724 932.531 105 941.353 105C950.174 105 958.475 102.724 965.726 98.7138C973.239 94.5591 983.083 94.5591 990.596 98.7138C997.847 102.724 1006.15 105 1014.97 105C1023.79 105 1032.09 102.724 1039.34 98.7138C1046.86 94.5591 1056.7 94.5591 1064.21 98.7138C1071.46 102.724 1079.77 105 1088.59 105C1097.41 105 1105.71 102.724 1112.96 98.7138C1120.47 94.5591 1130.32 94.5591 1137.83 98.7138C1145.08 102.724 1153.38 105 1162.2 105C1171.03 105 1179.33 102.724 1186.58 98.7138C1194.09 94.5591 1203.94 94.5591 1211.45 98.7138C1218.7 102.724 1227 105 1235.82 105C1244.64 105 1252.95 102.724 1260.2 98.7138C1267.71 94.5591 1277.55 94.5591 1285.07 98.7138C1292.32 102.724 1300.62 105 1309.44 105C1318.26 105 1326.56 102.724 1333.81 98.7138C1341.33 94.5591 1351.17 94.5591 1358.68 98.7138C1365.93 102.724 1374.24 105 1383.06 105C1391.88 105 1400.18 102.724 1407.43 98.7138C1414.94 94.5591 1424.79 94.5591 1432.3 98.7138C1439.55 102.724 1447.85 105 1456.68 105C1485.02 105 1508 81.4949 1508 52.5C1508 23.5051 1485.02 0 1456.68 0C1447.85 0 1439.55 2.27637 1432.3 6.28617C1424.79 10.4409 1414.94 10.4409 1407.43 6.28617C1400.18 2.27637 1391.88 0 1383.06 0C1374.24 0 1365.93 2.27637 1358.68 6.28616C1351.17 10.4409 1341.33 10.4409 1333.81 6.28616C1326.56 2.27637 1318.26 0 1309.44 0C1300.62 0 1292.32 2.27637 1285.07 6.28617C1277.55 10.4409 1267.71 10.4409 1260.2 6.28617C1252.95 2.27637 1244.64 0 1235.82 0C1227 0 1218.7 2.27637 1211.45 6.28617C1203.94 10.4409 1194.09 10.4409 1186.58 6.28617C1179.33 2.27637 1171.03 0 1162.2 0C1153.38 0 1145.08 2.27637 1137.83 6.28616C1130.32 10.4409 1120.47 10.4409 1112.96 6.28616C1105.71 2.27637 1097.41 0 1088.59 0C1079.77 0 1071.46 2.27637 1064.21 6.28617C1056.7 10.4409 1046.86 10.4409 1039.34 6.28617C1032.09 2.27637 1023.79 0 1014.97 0C1006.15 0 997.847 2.27637 990.596 6.28617C983.083 10.4409 973.239 10.4409 965.726 6.28617C958.475 2.27637 950.174 0 941.353 0C932.531 0 924.23 2.27637 916.979 6.28617C909.466 10.4409 899.622 10.4409 892.109 6.28617C884.858 2.27638 876.556 0 867.735 0C858.914 0 850.612 2.27638 843.361 6.28618C835.848 10.4409 826.004 10.4409 818.491 6.28618C811.24 2.27638 802.939 0 794.117 0C785.296 0 776.995 2.27637 769.744 6.28617C762.231 10.4409 752.387 10.4409 744.874 6.28617C737.623 2.27638 729.321 0 720.5 0C711.679 0 703.377 2.27637 696.126 6.28617C688.613 10.4409 678.769 10.4409 671.256 6.28617C664.005 2.27638 655.704 0 646.883 0C638.061 0 629.76 2.27638 622.509 6.28618C614.996 10.4409 605.152 10.4409 597.639 6.28618C590.388 2.27638 582.086 0 573.265 0C564.444 0 556.142 2.27637 548.891 6.28617C541.378 10.4409 531.534 10.4409 524.021 6.28617C516.77 2.27638 508.469 0 499.647 0C490.826 0 482.525 2.27637 475.274 6.28617C467.761 10.4409 457.917 10.4409 450.404 6.28617C443.153 2.27638 434.851 0 426.03 0C417.209 0 408.907 2.27639 401.656 6.2862C394.143 10.4409 384.299 10.4409 376.786 6.2862C369.535 2.27639 361.234 0 352.412 0C343.591 0 335.29 2.27639 328.039 6.2862C320.526 10.4409 310.682 10.4409 303.169 6.2862C295.918 2.27639 287.616 0 278.795 0C269.974 0 261.672 2.27639 254.421 6.2862C246.908 10.4409 237.064 10.4409 229.551 6.2862C222.3 2.27638 213.999 0 205.177 0C196.356 0 188.055 2.27639 180.804 6.2862C173.291 10.4409 163.447 10.4409 155.934 6.2862C148.683 2.27639 140.381 0 131.56 0C122.739 0 114.437 2.27639 107.186 6.2862C99.6731 10.4409 89.8292 10.4409 82.3162 6.2862C75.0652 2.27638 66.7637 0 57.9424 0C49.1211 0 40.8195 2.27639 33.5686 6.2862C26.0556 10.4409 16.2117 10.4409 8.6987 6.2862C1.44774 2.27639 -6.8538 0 -15.6751 0C-44.0211 0 -67 23.5051 -67 52.5C-67 81.4949 -44.0211 105 -15.6751 105Z" fill="#F09591" />
    </g>
    <defs>
        <clipPath id="clip0_632_314">
            <rect width="1440" height="10" fill="white" />
        </clipPath>
    </defs>
</svg>