<svg width="33" height="48" viewBox="0 0 33 48" fill="none" xmlns="http://www.w3.org/2000/svg">
<path d="M22.8772 18.7826H10.1441C8.97685 18.7826 8.02186 19.7217 8.02186 20.8696V45.913C8.02186 47.0609 8.97685 48 10.1441 48H22.8772C24.0444 48 24.9994 47.0609 24.9994 45.913V20.8696C24.9994 19.7217 24.0444 18.7826 22.8772 18.7826ZM16.5106 31.3043C14.1762 31.3043 12.2662 29.4261 12.2662 27.1304C12.2662 24.8348 14.1762 22.9565 16.5106 22.9565C18.845 22.9565 20.755 24.8348 20.755 27.1304C20.755 29.4261 18.845 31.3043 16.5106 31.3043ZM6.00579 12.6261L8.99807 15.5687C10.9293 13.6904 13.582 12.5217 16.5106 12.5217C19.4392 12.5217 22.092 13.6904 24.0231 15.5687L27.0154 12.6261C24.3203 9.97565 20.6064 8.34783 16.5106 8.34783C12.4148 8.34783 8.70096 9.97565 6.00579 12.6261ZM16.5106 0C10.0592 0 4.22315 2.56696 0 6.72L2.99228 9.66261C6.45145 6.28174 11.2264 4.17391 16.5106 4.17391C21.7949 4.17391 26.5698 6.28174 30.0077 9.68348L33 6.74087C28.7981 2.56696 22.9621 0 16.5106 0Z" fill="white"/>
</svg>
